<svg width="114" height="351" viewBox="0 0 114 351" fill="none" xmlns="http://www.w3.org/2000/svg">
<path d="M59.2604 334.608L68.378 328.808C68.5245 328.7 68.705 328.649 68.8862 328.664C69.0673 328.679 69.237 328.759 69.364 328.889L74.8624 334.608C75.097 334.883 75.2128 335.241 75.1845 335.602C75.1563 335.962 74.9862 336.297 74.7116 336.533L74.4796 336.696C71.3012 338.644 69.5728 339.526 65.6056 342.043C63.1696 343.586 52.8456 349.142 49.0292 349.409C45.2128 349.676 44.7836 346.068 46.338 345.488C54.1796 342.565 57.2304 338.83 58.228 335.895C58.4215 335.364 58.7843 334.912 59.2604 334.608Z" fill="#263238"/>
<path d="M31.9888 140.76C31.9888 140.76 8.8816 210.627 10.32 237.04C11.9324 266.04 56.894 335.64 56.894 335.64L72.6352 329.318C72.6352 329.318 38.16 257.688 37.0812 235.439C38.6008 203.238 68.4012 133.835 68.4012 133.835L31.9888 140.76Z" fill="#263238"/>
<path opacity="0.2" d="M31.9888 140.76C31.9888 140.76 8.8816 210.627 10.32 237.04C11.9324 266.04 56.894 335.64 56.894 335.64L72.6352 329.318C72.6352 329.318 38.16 257.688 37.0812 235.439C38.6008 203.238 68.4012 133.835 68.4012 133.835L31.9888 140.76Z" fill="white"/>
<path opacity="0.2" d="M57.0333 152.905C48.9133 157.87 45.7001 179.052 47.4169 189.805C51.8017 176.186 56.8129 162.765 60.8265 152.476C60.2135 152.202 59.5384 152.098 58.8713 152.173C58.2042 152.249 57.5696 152.501 57.0333 152.905Z" fill="black"/>
<path d="M75.9529 340.616H87.0309C87.2128 340.615 87.3895 340.677 87.5311 340.791C87.6728 340.905 87.7706 341.065 87.8081 341.243L89.6061 349.363C89.6434 349.56 89.6371 349.763 89.5875 349.957C89.5379 350.151 89.4462 350.332 89.319 350.487C89.1917 350.642 89.032 350.767 88.8511 350.853C88.6702 350.94 88.4725 350.985 88.272 350.987C84.6876 350.929 82.0776 350.708 77.5768 350.708C74.8044 350.708 66.4408 350.998 62.6128 350.998C58.7848 350.998 58.286 347.217 59.852 346.869C66.8816 345.338 72.1712 343.215 74.4216 341.196C74.838 340.813 75.3867 340.605 75.9529 340.616Z" fill="#263238"/>
<path d="M50.4328 132.536C50.4328 132.536 54.4 210.627 58.286 237.04C62.4968 266.04 72.8672 341.324 72.8672 341.324L88.7244 341.208C88.7244 341.208 85.9404 268.754 84.3628 240.288C82.5532 207.808 81.3352 141.375 81.3352 141.375L50.4328 132.536Z" fill="#263238"/>
<path opacity="0.2" d="M50.4328 132.536C50.4328 132.536 54.4 210.627 58.286 237.04C62.4968 266.04 72.8672 341.324 72.8672 341.324L88.7244 341.208C88.7244 341.208 85.9404 268.754 84.3628 240.288C82.5532 207.808 81.3352 141.375 81.3352 141.375L50.4328 132.536Z" fill="white"/>
<path d="M32.6151 135.575H81.3352V141.375L31.9887 140.772L32.6151 135.575Z" fill="#263238"/>
<path d="M65.6752 132.965H63.9352V143.266H65.6752V132.965Z" fill="#263238"/>
<path d="M41.0252 132.965H39.2852V143.266H41.0252V132.965Z" fill="#263238"/>
<path d="M54.8176 134.554H45.8044V141.05H54.8176V134.554Z" fill="white"/>
<path opacity="0.2" d="M65.6752 132.965H63.9352V143.266H65.6752V132.965Z" fill="white"/>
<path opacity="0.2" d="M41.0252 132.965H39.2852V143.266H41.0252V132.965Z" fill="white"/>
<path d="M37.4408 51.2544C29.3904 51.1848 1.0864 87.284 0.169999 100.589C-0.746401 113.894 9.45 112.827 15.6212 108.547C21.7924 104.266 26.9428 90.9612 26.9428 90.9612L21.4328 87.284C21.4328 87.284 30.156 77.9112 34.9004 76.2524L37.4408 51.2544Z" fill="url(#paint0_linear_1918_2050)"/>
<path opacity="0.6" d="M37.4408 51.2544L35.9444 66.0328L34.9004 76.2524C30.156 77.9112 21.4328 87.284 21.4328 87.284L26.9428 90.9612C26.9428 90.9612 21.746 104.266 15.6212 108.547C9.49638 112.827 -0.746427 113.906 0.169973 100.589C1.08637 87.2724 29.3904 51.1848 37.4408 51.2544Z" fill="white"/>
<path d="M37.4409 51.2544C37.4409 51.2544 68.2273 49.8044 91.1605 55.5928C91.1605 55.5928 81.0337 106.575 81.4165 135.575H32.6153C32.6153 135.575 29.4369 81.1824 37.4409 51.2544Z" fill="url(#paint1_linear_1918_2050)"/>
<path opacity="0.6" d="M91.1604 55.5928C91.1604 55.5928 89.142 65.7544 86.938 79.5816C86.126 84.7204 85.2792 90.3696 84.502 96.1928C82.704 109.788 81.2656 124.334 81.4164 135.575H32.6152C32.6152 135.575 29.4484 81.1824 37.4408 51.2544C37.4408 51.2544 68.2272 49.8044 91.1604 55.5928Z" fill="white"/>
<path d="M53.53 55.1637L54.8176 61.532C54.8176 61.532 47.4052 92.4576 45.8044 108.512L48.5072 111.215L52.7644 108.512C52.7644 108.512 53.1472 75.8348 56.894 62.112L63.622 56.602L58.3324 54.92L53.53 55.1637Z" fill="#263238"/>
<path d="M74.6885 51.7068L69.0973 54.3748C68.0533 54.8736 66.9513 55.3608 65.8493 55.8944C62.5085 55.5232 58.5297 54.5836 56.4069 52.31C59.0749 49.8276 59.8869 44.8628 59.8869 39.7936C59.87 37.8868 59.7577 35.982 59.5505 34.0864C59.3533 32.2072 59.0865 30.4556 58.8197 28.9824L67.3109 36.4412L71.3941 40.0256C71.1681 40.8545 70.9861 41.6947 70.8489 42.5428C70.5405 44.0741 70.5405 45.6515 70.8489 47.1828C71.0996 48.1806 71.5763 49.1074 72.242 49.8918C72.9077 50.6762 73.7447 51.2972 74.6885 51.7068Z" fill="url(#paint2_linear_1918_2050)"/>
<path opacity="0.2" d="M70.8372 47.1364C67.16 47.9136 62.1836 44.7352 59.852 39.7936C58.9442 37.9223 58.4873 35.8644 58.518 33.7848L59.5156 34.0864L67.276 36.4064L71.3592 39.9908C71.1332 40.8197 70.9512 41.6599 70.814 42.508C70.5148 44.0371 70.5227 45.6104 70.8372 47.1364Z" fill="black"/>
<path d="M76.6023 7.60364C76.6023 7.60364 81.2423 19.4356 75.8135 25.63C70.3847 31.8244 65.1995 9.00724 65.1995 9.00724L76.6023 7.60364Z" fill="#263238"/>
<path d="M59.1444 39.6544C60.9639 41.3642 63.2947 42.4287 65.7783 42.6844C68.2619 42.9401 70.7607 42.3728 72.8904 41.0696C75.6931 39.4446 77.7682 36.8093 78.6904 33.7036C78.818 33.2861 78.9224 32.8452 79.0152 32.3928C80.5116 24.18 78.5628 10.8516 69.5264 7.74285C67.5348 7.04422 65.3975 6.867 63.318 7.22805C61.2385 7.58911 59.286 8.47643 57.6465 9.80552C56.0069 11.1346 54.7348 12.8613 53.9513 14.821C53.1678 16.7808 52.899 18.9086 53.1704 21.0016C54.1564 29.98 54.3304 35.3044 59.1444 39.6544Z" fill="url(#paint3_linear_1918_2050)"/>
<path d="M66.9628 22.7764C66.9628 23.5072 67.4152 24.0872 67.9024 24.064C68.3896 24.0408 68.7376 23.4144 68.7028 22.6836C68.668 21.9528 68.2388 21.3728 67.7632 21.4076C67.2876 21.4424 66.928 22.034 66.9628 22.7764Z" fill="#263238"/>
<path d="M75.28 22.3356C75.28 23.0664 75.744 23.6348 76.2196 23.6116C76.6952 23.5884 77.0548 22.962 77.02 22.2312C76.9852 21.5004 76.556 20.9204 76.0804 20.9552C75.6048 20.99 75.28 21.6396 75.28 22.3356Z" fill="#263238"/>
<path d="M72.6469 22.8344C73.6374 25.0356 74.9339 27.0859 76.4981 28.9244C76.0153 29.3119 75.4538 29.5894 74.8528 29.7377C74.2518 29.8859 73.6257 29.9013 73.0181 29.7828L72.6469 22.8344Z" fill="#A46F4B"/>
<path d="M64.2368 20.236C64.3175 20.2424 64.3986 20.2276 64.4718 20.193C64.5451 20.1584 64.608 20.1052 64.6544 20.0388C64.9468 19.5839 65.3413 19.2034 65.8064 18.9276C66.2715 18.6517 66.7946 18.488 67.334 18.4496C67.447 18.4497 67.5557 18.4065 67.6377 18.3288C67.7198 18.2511 67.7688 18.1448 67.7748 18.032C67.7763 17.9746 67.7664 17.9176 67.7455 17.8642C67.7246 17.8107 67.6933 17.7621 67.6532 17.721C67.6132 17.6799 67.5654 17.6472 67.5125 17.6249C67.4597 17.6026 67.4029 17.5912 67.3456 17.5912C66.6622 17.6234 65.9964 17.818 65.4033 18.1589C64.8102 18.4998 64.3069 18.9773 63.9352 19.5516C63.9019 19.5979 63.8783 19.6503 63.8655 19.7058C63.8528 19.7614 63.8512 19.8189 63.8609 19.875C63.8706 19.9312 63.8914 19.9849 63.9221 20.0329C63.9528 20.0809 63.9927 20.1223 64.0396 20.1548C64.1004 20.1925 64.167 20.22 64.2368 20.236Z" fill="#263238"/>
<path d="M72.0088 33.6456C70.9673 33.8607 69.8894 33.8222 68.8659 33.5335C67.8423 33.2448 66.9032 32.7144 66.1276 31.9868C66.0851 31.9434 66.0613 31.8851 66.0613 31.8244C66.0613 31.7637 66.0851 31.7054 66.1276 31.662C66.1481 31.6413 66.1725 31.6249 66.1993 31.6137C66.2262 31.6025 66.2551 31.5967 66.2842 31.5967C66.3133 31.5967 66.3421 31.6025 66.369 31.6137C66.3959 31.6249 66.4203 31.6413 66.4408 31.662C67.174 32.3211 68.0499 32.8013 68.9999 33.065C69.9498 33.3286 70.948 33.3686 71.916 33.1816C71.9434 33.1748 71.972 33.1736 71.9999 33.1782C72.0278 33.1827 72.0545 33.1929 72.0784 33.2081C72.1022 33.2233 72.1228 33.2432 72.1387 33.2665C72.1547 33.2899 72.1657 33.3162 72.1712 33.344C72.1822 33.4007 72.1716 33.4595 72.1416 33.5088C72.1116 33.5582 72.0642 33.5945 72.0088 33.6108V33.6456Z" fill="#263238"/>
<path d="M78.6788 19.2732C78.7613 19.3024 78.8514 19.3024 78.934 19.2732C79.0338 19.2192 79.1081 19.1278 79.1407 19.0191C79.1733 18.9105 79.1616 18.7933 79.108 18.6932C78.7945 18.075 78.3368 17.5414 77.7734 17.1376C77.2101 16.7338 76.5577 16.4716 75.8716 16.3732C75.7565 16.3668 75.6435 16.4057 75.5568 16.4816C75.4701 16.5575 75.4165 16.6643 75.4076 16.7792C75.4045 16.8356 75.4125 16.8921 75.4312 16.9453C75.4499 16.9986 75.479 17.0477 75.5167 17.0897C75.5544 17.1317 75.6001 17.1659 75.651 17.1902C75.702 17.2146 75.7572 17.2287 75.8136 17.2316C76.3488 17.319 76.8561 17.5302 77.2951 17.8484C77.7342 18.1666 78.0928 18.583 78.3424 19.0644C78.379 19.1224 78.4283 19.1714 78.4865 19.2076C78.5448 19.2438 78.6106 19.2662 78.6788 19.2732Z" fill="#263238"/>
<path d="M59.1445 9.39001L60.0377 13.2992C59.3906 13.679 58.9114 14.2897 58.6962 15.0084C58.481 15.7272 58.5458 16.5007 58.8777 17.1736C60.4901 20.3752 59.1329 25.7344 56.7781 28.0544C56.7781 28.0544 56.5577 26.616 55.3745 27.08C54.1913 27.544 55.2933 35.0376 58.0309 38.3784C58.0309 38.3784 54.1101 35.5016 51.2797 27.8224C48.6581 20.7116 47.7997 14.6564 48.9597 11.6752L59.1445 9.39001Z" fill="#263238"/>
<path d="M49.5976 28.6112C50.7119 30.5931 52.5624 32.0559 54.748 32.6828C57.6596 33.4832 59.098 30.8848 58.2976 28.1356C57.5552 25.7112 55.1656 22.3356 52.2424 22.7184C49.3192 23.1012 48.2636 26.152 49.5976 28.6112Z" fill="url(#paint4_linear_1918_2050)"/>
<path d="M75.1872 8.3924C75.1872 8.3924 75.7672 13.1832 63.274 15.3524C66.4341 14.4887 69.3031 12.7898 71.5796 10.434C71.5796 10.434 67.044 13.6936 57.6596 16.0948C48.2752 18.496 50.0036 23.6928 50.0036 23.6928C48.3137 21.4914 47.3036 18.8442 47.0976 16.0766C46.8915 13.309 47.4984 10.5414 48.8436 8.114C53.4836 -0.713597 72.8208 -3.0104 75.802 5.4924C75.802 5.4924 80.5348 5.9448 78.4816 16.0252L75.1872 8.3924Z" fill="#263238"/>
<path d="M71.6724 47.2175L58.808 53.0175L58.054 48.3775L53.3328 50.0363C52.506 50.3243 51.8007 50.8832 51.3312 51.6222C50.8616 52.3612 50.6555 53.2371 50.746 54.1079L51.2796 59.2119L57.8104 55.6391L61.0584 60.2791L76.5096 52.8435L71.6724 47.2175Z" fill="url(#paint5_linear_1918_2050)"/>
<path opacity="0.7" d="M71.6724 47.2175L58.808 53.0175L58.054 48.3775L53.3328 50.0363C52.506 50.3243 51.8007 50.8832 51.3312 51.6222C50.8616 52.3612 50.6555 53.2371 50.746 54.1079L51.2796 59.2119L57.8104 55.6391L61.0584 60.2791L76.5096 52.8435L71.6724 47.2175Z" fill="white"/>
<path opacity="0.2" d="M86.938 79.5816C86.126 84.7204 85.2792 90.3696 84.502 96.1928C82.9554 93.1211 82.0715 89.7588 81.9076 86.3236C81.7438 82.8885 82.3036 79.4573 83.5508 76.2524L86.938 79.5816Z" fill="black"/>
<path d="M91.1604 55.5928C96.7052 58.1448 114.72 94.2788 113.525 114.683C112.4 134.554 81.3352 159.32 81.3352 159.32C81.3352 159.32 74.6188 153.868 73.6792 149.182C73.6792 149.182 95.5452 126.527 96.1252 114.648C96.6936 102.979 83.9452 82.1684 83.9452 82.1684C83.9452 82.1684 82.4952 73.4684 85.1052 65.9284C87.7152 58.3884 91.1604 55.5928 91.1604 55.5928Z" fill="url(#paint6_linear_1918_2050)"/>
<path opacity="0.6" d="M91.1604 55.5928C96.7052 58.1448 114.72 94.2788 113.525 114.683C112.4 134.554 81.3352 159.32 81.3352 159.32C81.3352 159.32 74.6188 153.868 73.6792 149.182C73.6792 149.182 95.5452 126.527 96.1252 114.648C96.6936 102.979 83.9452 82.1684 83.9452 82.1684C83.9452 82.1684 82.4952 73.4684 85.1052 65.9284C87.7152 58.3884 91.1604 55.5928 91.1604 55.5928Z" fill="white"/>
<path opacity="0.2" d="M35.9444 66.0328L34.9004 76.2524C30.156 77.9112 21.4328 87.284 21.4328 87.284L16.3868 84.0708L7.52437 93.3508C7.99997 92.5156 23.08 68.26 35.9444 66.0328Z" fill="black"/>
<path d="M73.6792 144.391C73.6792 144.391 78.7368 155.736 82.9592 158.032C82.9592 158.032 83.8756 161.872 80.1984 167.092C76.5212 172.312 62.346 154.367 73.6792 144.391Z" fill="#263238"/>
<path opacity="0.2" d="M73.6792 144.391C73.6792 144.391 78.7368 155.736 82.9592 158.032C82.9592 158.032 83.8756 161.872 80.1984 167.092C76.5212 172.312 62.346 154.367 73.6792 144.391Z" fill="white"/>
<path d="M85.198 99.522C85.198 99.522 85.198 99.9744 85.198 100.798C85.198 102.492 85.0936 105.763 84.8848 109.846C84.6528 114.393 84.2584 119.961 83.5972 125.436C83.115 129.705 82.3673 133.94 81.3584 138.115L32.3599 137.802C31.6662 133.138 31.2787 128.434 31.1999 123.72C31.0143 116.261 31.1999 108.431 31.4899 102.735C31.7219 97.7124 31.9656 94.3368 31.9656 94.3368C32.1396 91.9124 32.36 89.546 32.6036 87.2492C33.8413 74.9976 36.2061 62.8862 39.668 51.0688L40.9904 50.9992L47.44 50.628L48.5071 50.57C46.9179 65.7892 51.2912 84.9408 51.2912 84.9408C63.5524 65.1048 81.834 53.0176 81.834 53.0176L84.5252 53.6788L88.0052 54.5372L89.4204 54.8852C76.1964 79.6628 85.198 99.522 85.198 99.522Z" fill="url(#paint7_linear_1918_2050)"/>
<path opacity="0.4" d="M85.198 99.522C85.198 99.522 85.198 99.9744 85.198 100.798C83.0404 98.2229 79.746 92.1908 80.4768 79.6628C81.254 66.2532 85.6968 57.994 88.0168 54.5372L89.432 54.8852C76.1964 79.6628 85.198 99.522 85.198 99.522Z" fill="white"/>
<path opacity="0.4" d="M84.56 53.6788C78.8876 57.5068 59.2836 71.6008 50.746 88.9312C50.746 88.9312 44.5516 70.5336 47.4748 50.6512L48.542 50.5932C46.9528 65.8124 51.326 84.964 51.326 84.964C63.5872 65.128 81.8688 53.0408 81.8688 53.0408L84.56 53.6788Z" fill="white"/>
<path opacity="0.4" d="M41.0137 50.9991C38.8815 58.343 37.2078 65.8124 36.0025 73.364C35.2336 78.0832 34.1051 82.7367 32.6269 87.284C33.8646 75.0323 36.2294 62.9209 39.6913 51.1036L41.0137 50.9991Z" fill="white"/>
<path opacity="0.2" d="M33.9491 98.8608L36.2691 111.389L31.1999 123.72C31.0143 116.261 31.1999 108.431 31.4899 102.735L33.9491 98.8608Z" fill="white"/>
<path opacity="0.2" d="M41.4777 98.8608L44.5401 112.932L39.2853 127.211L36.304 111.389L41.4777 98.8608Z" fill="white"/>
<path opacity="0.2" d="M49.7136 98.8608L53.762 113.268L47.8692 128.278L44.54 112.932L49.7136 98.8608Z" fill="white"/>
<path opacity="0.2" d="M59.4228 98.8608L63.3668 116.783L58.3672 129.659L53.762 113.268L59.4228 98.8608Z" fill="white"/>
<path opacity="0.2" d="M69.5729 100.798L72.4497 115.078L66.2321 129.81L63.3669 116.783L69.5729 100.798Z" fill="white"/>
<path opacity="0.2" d="M78.4699 100.798L81.7643 116.736L75.5583 130.575L72.4495 115.078L78.4699 100.798Z" fill="white"/>
<path opacity="0.2" d="M84.8616 109.846C84.6296 114.393 84.2352 119.961 83.574 125.436L81.7644 116.736L84.8616 109.846Z" fill="white"/>
<path d="M17.4192 84.906L23.6716 78.2592C23.6716 78.2592 25.458 71.6704 26.096 71.1716C26.734 70.6728 33.9028 68.8516 33.9028 68.8516L35.0628 82.5396C33.1946 83.869 31.0027 84.6704 28.7176 84.8596L25.5972 90.2304L17.4192 84.906Z" fill="url(#paint8_linear_1918_2050)"/>
<path d="M29.7151 67.564H42.1735C42.3889 67.564 42.5954 67.6495 42.7477 67.8018C42.9 67.9541 42.9855 68.1606 42.9855 68.376V81.9828C42.9855 82.7673 42.6739 83.5197 42.1191 84.0744C41.5644 84.6291 40.812 84.9408 40.0275 84.9408H31.9075C31.123 84.9408 30.3706 84.6291 29.8159 84.0744C29.2612 83.5197 28.9495 82.7673 28.9495 81.9828V68.376C28.9492 68.1684 29.0283 67.9686 29.1707 67.8176C29.3131 67.6666 29.5079 67.5758 29.7151 67.564Z" fill="#263238"/>
<path d="M35.9443 43.2388C37.6094 45.0116 38.5917 47.3175 38.7167 49.7464C38.7167 53.4816 33.3692 54.8736 36.7332 62.054C35.5206 61.3287 34.5525 60.2577 33.9531 58.9782C33.3537 57.6988 33.1503 56.2694 33.3691 54.8736C34.1347 49.9668 38.5195 50.28 35.9443 43.2388Z" fill="url(#paint9_linear_1918_2050)"/>
<path opacity="0.8" d="M35.9443 43.2388C37.6094 45.0116 38.5917 47.3175 38.7167 49.7464C38.7167 53.4816 33.3692 54.8736 36.7332 62.054C35.5206 61.3287 34.5525 60.2577 33.9531 58.9782C33.3537 57.6988 33.1503 56.2694 33.3691 54.8736C34.1347 49.9668 38.5195 50.28 35.9443 43.2388Z" fill="white"/>
<defs>
<linearGradient id="paint0_linear_1918_2050" x1="108007" y1="180324" x2="72435.6" y2="137230" gradientUnits="userSpaceOnUse">
<stop/>
<stop offset="1" stop-color="#5E88F3"/>
</linearGradient>
<linearGradient id="paint1_linear_1918_2050" x1="171230" y1="253151" x2="122762" y2="186861" gradientUnits="userSpaceOnUse">
<stop/>
<stop offset="1" stop-color="#5E88F3"/>
</linearGradient>
<linearGradient id="paint2_linear_1918_2050" x1="1582.65" y1="42827.1" x2="7904.21" y2="51130.5" gradientUnits="userSpaceOnUse">
<stop stop-color="#C6946A"/>
<stop offset="1" stop-color="#513E52"/>
</linearGradient>
<linearGradient id="paint3_linear_1918_2050" x1="2257.31" y1="56778.5" x2="10428.1" y2="68463.4" gradientUnits="userSpaceOnUse">
<stop stop-color="#C6946A"/>
<stop offset="1" stop-color="#513E52"/>
</linearGradient>
<linearGradient id="paint4_linear_1918_2050" x1="841.268" y1="16150.7" x2="2933.85" y2="19936.8" gradientUnits="userSpaceOnUse">
<stop stop-color="#C6946A"/>
<stop offset="1" stop-color="#513E52"/>
</linearGradient>
<linearGradient id="paint5_linear_1918_2050" x1="74655.9" y1="39178.4" x2="70833.3" y2="24442.1" gradientUnits="userSpaceOnUse">
<stop/>
<stop offset="1" stop-color="#5E88F3"/>
</linearGradient>
<linearGradient id="paint6_linear_1918_2050" x1="115529" y1="310812" x2="55548.8" y2="265753" gradientUnits="userSpaceOnUse">
<stop/>
<stop offset="1" stop-color="#5E88F3"/>
</linearGradient>
<linearGradient id="paint7_linear_1918_2050" x1="168703" y1="262327" x2="117762" y2="196086" gradientUnits="userSpaceOnUse">
<stop/>
<stop offset="1" stop-color="#5E88F3"/>
</linearGradient>
<linearGradient id="paint8_linear_1918_2050" x1="1490.39" y1="34067.6" x2="6178.73" y2="41549" gradientUnits="userSpaceOnUse">
<stop stop-color="#C6946A"/>
<stop offset="1" stop-color="#513E52"/>
</linearGradient>
<linearGradient id="paint9_linear_1918_2050" x1="15753.6" y1="56411.7" x2="6060.14" y2="50945.5" gradientUnits="userSpaceOnUse">
<stop/>
<stop offset="1" stop-color="#5E88F3"/>
</linearGradient>
</defs>
</svg>
