<svg width="33" height="37" viewBox="0 0 33 37" fill="none" xmlns="http://www.w3.org/2000/svg">
<path d="M7.49895 28.5668L11.4333 35.3817C12.2823 36.8538 14.1921 37.3989 15.7024 36.5258C17.1968 35.6621 17.7104 33.7526 16.8459 32.257L14.5021 28.1969L16.5319 27.025C16.9054 26.809 17.0336 26.3314 16.8178 25.9578L15.8019 24.1982C15.923 24.1747 16.7195 24.0184 30.7659 21.263C32.5023 21.1687 33.5427 19.2696 32.6656 17.7513L30.0691 13.2543L31.7284 10.7411C31.8913 10.494 31.9011 10.1763 31.7531 9.91992L30.1906 7.21362C30.0426 6.95728 29.7615 6.80713 29.467 6.82452L26.4614 7.00488L23.579 2.01221C23.1615 1.28894 22.4135 0.851013 21.5785 0.840637C21.5685 0.840332 21.5587 0.840332 21.5486 0.840332C20.7418 0.840332 20.0093 1.24194 19.5754 1.92096L9.36968 14.9221L2.73485 18.7526C0.125293 20.2587 -0.778638 23.6064 0.733203 26.223C2.11443 28.6156 5.02642 29.5568 7.49895 28.5668ZM15.493 33.0385C15.9246 33.785 15.6691 34.7402 14.9205 35.1726C14.1695 35.6069 13.2131 35.3401 12.7864 34.6007L8.88018 27.834L11.5865 26.2715C16.1074 34.103 15.4204 32.9131 15.493 33.0385ZM13.7209 26.8434L12.9396 25.4903L14.2928 24.709L15.074 26.0622L13.7209 26.8434ZM29.0788 8.41296L30.1586 10.2831L29.1957 11.7412L27.3348 8.51764L29.0788 8.41296ZM20.8821 2.77759C21.0918 2.43457 21.4244 2.39917 21.5593 2.40283C21.6927 2.40436 22.025 2.44586 22.2255 2.79315L31.3124 18.5326C31.6084 19.045 31.2486 19.6892 30.6551 19.7039C30.5486 19.7063 30.4994 19.7255 30.2266 19.7765L20.6145 3.12762C20.8162 2.86823 20.8422 2.8432 20.8821 2.77759ZM19.5748 4.45209L28.6058 20.0945L14.9761 22.7678L10.8318 15.5898L19.5748 4.45209ZM2.08635 25.4418C1.74334 24.8482 1.56206 24.1744 1.56206 23.4926C1.56206 22.0992 2.31096 20.8016 3.5161 20.1058L9.60527 16.5901L13.5115 23.3559L7.42235 26.8718C5.55681 27.9485 3.16332 27.307 2.08635 25.4418Z" fill="#7D97F4"/>
</svg>
